# xmcd
#
# Track frame offsets:
#	150
#	36305
#	60005
#	78951
#	128980
#	160855
#	192045
#	254616
#	274418
#	311103
#	332917
#
# Disc length: 4856 seconds
#
# Revision: 1
# Processed by: cddbd v1.5.1PL0 Copyright (c) Steve Scherf et al.
# Submitted via: audiograbber 1.83.01
#
DISCID=9912f60b
DTITLE=Robin Trower - 1987-03-07 - Detroit - FM
DYEAR=1900
DGENRE=
TTITLE0=Too Rolling Stoned
TTITLE1=Secret Doors
TTITLE2=Day of the Eagle
TTITLE3=Bridge of Sighs
TTITLE4=Passion
TTITLE5=No Time
TTITLE6=Daydream
TTITLE7=Bad Time
TTITLE8=Rock Me Baby
TTITLE9=Won't Think About You
TTITLE10=Little Bit of Sympathy
EXTD=
EXTT0=
EXTT1=
EXTT2=
EXTT3=
EXTT4=
EXTT5=
EXTT6=
EXTT7=
EXTT8=
EXTT9=
EXTT10=
PLAYORDER=
